<svg version="1.1" id="Layer_1___8R80ebio" xmlns="http://www.w3.org/2000/svg" xmlns:xlink="http://www.w3.org/1999/xlink" x="0px" y="0px" viewBox="0 0 20 20" style="enable-background:new 0 0 20 20;" xml:space="preserve">
<style type="text/css">
	.st0{fill:#ED2224;}
	.st1{fill:#2873BA;}
	.st2{fill:#10753B;}
	.st3{fill:#6EB247;}
	.st4{fill:#43A2D7;}
	.st5{fill:#FFCA13;}
	.st6{fill:#D2952A;}
	.st7{fill:#ED1C24;}
	.st8{fill:#010101;}
	.st9{fill:#F6851F;}
	.st10{fill:#989898;}
	.st11{fill:#492078;}
</style>
<path class="st0" d="M0,0v20h20V0H0z M18,18H2V2h16V18z"></path>
<path class="st0" d="M3.9,17.4c-0.6,0-0.8-0.3-0.9-0.6c-0.2-0.4-0.2-0.8-0.1-1.2c0.1-0.5,0.4-0.9,0.8-1.3c0.6-0.5,1.2-1,1.9-1.4
	c0.4-0.2,0.8-0.4,1.2-0.6c0.7-1.2,1.4-2.5,1.9-3.9c0-0.1,0.1-0.3,0.1-0.4C8.7,7.9,8.6,7.5,8.5,7.1C8.3,6.6,8.2,6.1,8.2,5.6
	c0-0.5,0-0.9,0-1.4c0-0.3,0.1-0.7,0.3-1C8.7,2.8,9,2.6,9.3,2.5c0.1,0,0.2-0.1,0.4-0.1c0.2,0,0.4,0,0.5,0c0.2,0.1,0.3,0.2,0.5,0.2
	c0.7,0.4,0.6,1,0.5,1.7l0,0.3C11,5.9,10.8,7,10.5,8.1c0,0,0,0.1,0,0.1c0.4,0.7,0.8,1.4,1.3,2c0.2,0.3,0.5,0.6,0.7,0.9
	c0.4,0,0.9,0,1.3,0c0.5,0,1,0.1,1.4,0.2c0.4,0.1,0.8,0.3,1.2,0.5c0.4,0.3,0.7,0.6,1,1.1c0.2,0.5,0.2,1,0,1.5
	c-0.2,0.5-0.6,0.8-1.1,0.9c-0.4,0.1-0.8,0.1-1.3,0c-0.5-0.2-0.9-0.4-1.3-0.7c-0.5-0.4-1-0.8-1.4-1.3c-0.2-0.2-0.3-0.4-0.5-0.6
	c-0.3,0-0.7,0.1-1,0.2c-0.7,0.1-1.4,0.3-2,0.5c-0.3,0.1-0.7,0.2-1,0.3c0,0-0.1,0.1-0.1,0.1c-0.6,0.9-1.3,1.8-2.1,2.6
	c-0.4,0.4-0.9,0.7-1.4,0.8C4.1,17.4,4,17.4,3.9,17.4z M14,12.8c0.2,0.2,0.5,0.4,0.7,0.6c0.3,0.2,0.6,0.4,0.9,0.5c0.1,0,0.2,0,0.3,0
	c0.1-0.1,0.1-0.2,0.1-0.2c-0.1-0.2-0.2-0.3-0.4-0.4c-0.2-0.2-0.5-0.3-0.8-0.3C14.6,12.9,14.3,12.8,14,12.8z M9.8,10.1
	c-0.2,0.6-0.5,1.2-0.8,1.7c0.5-0.1,1.1-0.3,1.6-0.4c0,0,0.1,0,0.1,0c0-0.1-0.1-0.1-0.1-0.2C10.3,10.8,10,10.4,9.8,10.1z M10,4
	C10,4,10,4,10,4C10,4,10,4,10,4z"></path>
</svg>